# xmcd
#
# Track frame offsets:
#	150
#	13274
#	25706
#	40712
#	52856
#	71606
#	86221
#	99850
#	115958
#	130358
#	140803
#
# Disc length: 2074 seconds
#
# Revision: 1
# Processed by: cddbd v1.5.2PL0 Copyright (c) Steve Scherf et al.
# Submitted via: audiograbber 1.83.01
#
DISCID=9208180b
DTITLE=Kenny Rogers - Love or Something Like It
DYEAR=1900
DGENRE=
TTITLE0=Love or Something Like It
TTITLE1=There's a Lot of That Going Around
TTITLE2=Buried Treasures
TTITLE3=Something About Your Song
TTITLE4=Momma's Waiting
TTITLE5=We Could Have Been the Closest of Friends
TTITLE6=I Could Be So Good for You
TTITLE7="Sail Away
TTITLE8=Even a Fool Would Let Go
TTITLE9=Highway Flyer
TTITLE10=Starting Again
EXTD=
EXTT0=
EXTT1=
EXTT2=
EXTT3=
EXTT4=
EXTT5=
EXTT6=
EXTT7=
EXTT8=
EXTT9=
EXTT10=
PLAYORDER=
